<svg width="234" height="1555" viewBox="0 0 234 1555" fill="none" xmlns="http://www.w3.org/2000/svg">
<mask id="path-1-outside-1_1531_1487" maskUnits="userSpaceOnUse" x="0.381836" y="-0.492188" width="233" height="1556" fill="black">
<rect fill="white" x="0.381836" y="-0.492188" width="233" height="1556"/>
<path d="M180.694 1553.92H1.38184L1.38184 1529.43L117.693 1456.74V1470.77L1.38184 1398.33L1.38184 1373.84H180.694V1408.28H60.8126L62.8531 1401.65L143.965 1452.15V1475.62L62.8531 1526.12L60.8126 1519.23H180.694V1553.92ZM183.245 1282.88C183.245 1295.3 180.439 1306.52 174.828 1316.55C169.046 1326.42 161.309 1334.32 151.617 1340.27C141.754 1346.06 130.786 1348.95 118.713 1348.95C106.64 1348.95 95.8419 1346.06 86.3193 1340.27C76.6268 1334.49 68.9747 1326.59 63.3633 1316.55C57.5817 1306.52 54.691 1295.38 54.691 1283.14C54.691 1270.56 57.5817 1259.33 63.3633 1249.47C68.9747 1239.44 76.6268 1231.53 86.3193 1225.75C95.8419 1219.97 106.64 1217.08 118.713 1217.08C130.786 1217.08 141.754 1219.97 151.617 1225.75C161.309 1231.53 169.046 1239.44 174.828 1249.47C180.439 1259.33 183.245 1270.47 183.245 1282.88ZM152.127 1283.14C152.127 1276.85 150.766 1271.32 148.046 1266.56C145.155 1261.63 141.244 1257.89 136.313 1255.34C131.211 1252.62 125.43 1251.26 118.968 1251.26C112.506 1251.26 106.81 1252.62 101.878 1255.34C96.9472 1258.06 93.1211 1261.8 90.4004 1266.56C87.5097 1271.32 86.0643 1276.85 86.0643 1283.14C86.0643 1289.26 87.5097 1294.7 90.4004 1299.46C93.1211 1304.22 96.9472 1307.97 101.878 1310.69C106.81 1313.41 112.506 1314.77 118.968 1314.77C125.43 1314.77 131.211 1313.41 136.313 1310.69C141.244 1307.97 145.155 1304.22 148.046 1299.46C150.766 1294.7 152.127 1289.26 152.127 1283.14ZM180.694 1112.67H110.041C102.729 1112.67 96.7771 1114.96 92.1859 1119.55C87.5947 1124.15 85.2991 1130.1 85.2991 1137.41C85.2991 1142.17 86.3193 1146.42 88.3599 1150.16C90.4004 1153.9 93.2912 1156.88 97.0322 1159.09C100.773 1161.13 105.109 1162.15 110.041 1162.15L103.409 1175.16C93.7163 1175.16 85.2991 1173.12 78.1572 1169.04C70.8452 1164.79 65.1487 1159.01 61.0677 1151.69C56.9866 1144.21 54.946 1135.79 54.946 1126.44C54.946 1117.43 57.2416 1109.35 61.8329 1102.21C66.254 1095.07 72.1206 1089.46 79.4325 1085.38C86.5744 1081.29 94.3115 1079.25 102.644 1079.25H180.694V1112.67ZM180.694 1195.56H57.4967V1162.15H180.694V1195.56ZM183.245 934.162C183.245 943.005 181.46 950.997 177.889 958.139C174.148 965.281 169.131 970.977 162.84 975.228C156.548 979.479 149.321 981.775 141.159 982.115H97.5423C89.3802 981.775 82.1532 979.479 75.8616 975.228C69.3999 970.807 64.2985 965.111 60.5575 958.139C56.8165 950.997 54.946 943.005 54.946 934.162C54.946 922.769 57.7518 912.567 63.3633 903.554C68.9748 894.542 76.6268 887.485 86.3194 882.384C96.0119 877.112 106.98 874.477 119.223 874.477C131.296 874.477 142.179 877.112 151.872 882.384C161.564 887.485 169.216 894.542 174.828 903.554C180.439 912.567 183.245 922.769 183.245 934.162ZM152.382 940.029C152.382 933.907 151.021 928.466 148.301 923.705C145.41 918.943 141.499 915.287 136.568 912.737C131.466 910.016 125.6 908.656 118.968 908.656C112.506 908.656 106.81 910.016 101.878 912.737C96.7771 915.287 92.8661 918.943 90.1454 923.705C87.2546 928.466 85.8092 933.907 85.8092 940.029C85.8092 945.981 87.2546 951.337 90.1454 956.098C92.8661 960.86 96.7771 964.601 101.878 967.321C106.81 969.872 112.506 971.147 118.968 971.147C125.6 971.147 131.466 969.872 136.568 967.321C141.499 964.601 145.41 960.945 148.301 956.353C151.021 951.592 152.382 946.151 152.382 940.029ZM232.218 1002.52H57.4967V969.107H89.8903L119.733 974.718L149.576 969.362H232.218V1002.52ZM183.245 801.045C183.245 812.268 180.439 822.386 174.828 831.398C169.216 840.411 161.564 847.467 151.872 852.569C142.179 857.67 131.296 860.221 119.223 860.221C106.98 860.221 96.0119 857.67 86.3194 852.569C76.6268 847.467 68.9748 840.411 63.3633 831.398C57.7518 822.386 54.946 812.268 54.946 801.045C54.946 792.203 56.7315 784.296 60.3025 777.324C63.8734 770.352 68.8897 764.825 75.3514 760.744C81.6431 756.493 88.785 754.198 96.7771 753.858H141.159C149.321 754.198 156.548 756.493 162.84 760.744C169.131 764.825 174.148 770.352 177.889 777.324C181.46 784.296 183.245 792.203 183.245 801.045ZM152.382 794.923C152.382 785.571 149.321 778.004 143.199 772.222C136.908 766.441 128.831 763.55 118.968 763.55C112.506 763.55 106.81 764.911 101.878 767.631C96.7771 770.182 92.8661 773.838 90.1454 778.599C87.2546 783.19 85.8092 788.632 85.8092 794.923C85.8092 801.045 87.2546 806.486 90.1454 811.248C92.8661 815.839 96.7771 819.495 101.878 822.216C106.81 824.766 112.506 826.042 118.968 826.042C125.6 826.042 131.466 824.766 136.568 822.216C141.499 819.495 145.41 815.839 148.301 811.248C151.021 806.486 152.382 801.045 152.382 794.923ZM180.694 765.336H147.536L117.438 759.979L87.8498 765.336H57.4967V732.177H180.694V765.336ZM180.694 702.617H57.4967V669.203H180.694V702.617ZM112.591 669.203L103.919 682.211C88.785 680.681 76.8818 676.26 68.2095 668.948C59.3672 661.636 54.946 651.093 54.946 637.32C54.946 631.368 55.9663 626.012 58.0068 621.25C59.8773 616.489 63.0232 612.153 67.4443 608.242L91.4207 629.157C89.3802 631.028 87.8498 633.324 86.8295 636.044C85.8092 638.595 85.2991 641.571 85.2991 644.972C85.2991 652.114 87.5947 657.98 92.1859 662.571C96.6071 666.992 103.409 669.203 112.591 669.203ZM183.245 541.837C183.245 554.42 180.439 565.728 174.828 575.761C169.216 585.793 161.564 593.7 151.872 599.482C142.179 605.263 131.296 608.154 119.223 608.154C106.98 608.154 96.0119 605.263 86.3194 599.482C76.6268 593.7 68.9748 585.793 63.3633 575.761C57.5817 565.558 54.691 554.25 54.691 541.837C54.691 532.144 56.4764 523.217 60.0474 515.055C63.6183 506.892 68.7197 499.835 75.3514 493.884L97.0322 515.31C93.4612 518.54 90.7405 522.451 88.87 527.043C86.9995 531.464 86.0643 536.395 86.0643 541.837C86.0643 547.958 87.5097 553.485 90.4004 558.416C93.1212 563.177 96.9472 567.003 101.878 569.894C106.64 572.615 112.336 573.975 118.968 573.975C125.43 573.975 131.211 572.615 136.313 569.894C141.244 567.003 145.155 563.177 148.046 558.416C150.766 553.485 152.127 547.958 152.127 541.837C152.127 536.225 151.192 531.209 149.321 526.788C147.281 522.196 144.39 518.285 140.649 515.055L162.329 493.374C169.131 499.665 174.318 506.892 177.889 515.055C181.46 523.217 183.245 532.144 183.245 541.837ZM183.245 419.291C183.245 431.704 180.439 442.927 174.828 452.96C169.046 462.822 161.309 470.729 151.617 476.681C141.754 482.462 130.786 485.353 118.713 485.353C106.64 485.353 95.8419 482.462 86.3194 476.681C76.6268 470.899 68.9748 462.992 63.3633 452.96C57.5817 442.927 54.691 431.789 54.691 419.546C54.691 406.962 57.5817 395.739 63.3633 385.877C68.9748 375.844 76.6268 367.937 86.3194 362.155C95.8419 356.374 106.64 353.483 118.713 353.483C130.786 353.483 141.754 356.374 151.617 362.155C161.309 367.937 169.046 375.844 174.828 385.877C180.439 395.739 183.245 406.877 183.245 419.291ZM152.127 419.546C152.127 413.254 150.766 407.728 148.046 402.966C145.155 398.035 141.244 394.294 136.313 391.743C131.211 389.023 125.43 387.662 118.968 387.662C112.506 387.662 106.81 389.023 101.878 391.743C96.9472 394.464 93.1212 398.205 90.4004 402.966C87.5097 407.728 86.0643 413.254 86.0643 419.546C86.0643 425.667 87.5097 431.109 90.4004 435.87C93.1212 440.631 96.9472 444.372 101.878 447.093C106.81 449.814 112.506 451.174 118.968 451.174C125.43 451.174 131.211 449.814 136.313 447.093C141.244 444.372 145.155 440.631 148.046 435.87C150.766 431.109 152.127 425.667 152.127 419.546ZM183.245 279.428C183.245 290.311 180.949 300.003 176.358 308.506C171.767 316.838 165.39 323.385 157.228 328.146C149.066 332.907 139.628 335.288 128.916 335.288H57.4967V301.619H128.15C133.252 301.619 137.673 300.769 141.414 299.068C144.985 297.368 147.706 294.817 149.576 291.416C151.447 288.015 152.382 284.019 152.382 279.428C152.382 272.456 150.256 267.015 146.005 263.104C141.754 259.193 135.802 257.237 128.15 257.237H57.4967V223.823H128.916C139.799 223.823 149.321 226.204 157.483 230.965C165.645 235.556 172.022 242.103 176.613 250.605C181.034 258.937 183.245 268.545 183.245 279.428ZM180.694 197.214H57.4967V163.8H180.694V197.214ZM112.591 163.8L103.919 176.809C88.785 175.279 76.8819 170.857 68.2096 163.545C59.3672 156.233 54.946 145.691 54.946 131.917C54.946 125.965 55.9663 120.609 58.0068 115.848C59.8773 111.087 63.0232 106.75 67.4444 102.839L91.4207 123.755C89.3802 125.625 87.8498 127.921 86.8295 130.642C85.8092 133.192 85.2991 136.168 85.2991 139.569C85.2991 146.711 87.5947 152.578 92.1859 157.169C96.6071 161.59 103.409 163.8 112.591 163.8ZM183.5 51.5011C183.5 58.4729 182.565 65.3597 180.694 72.1615C178.824 78.7933 176.273 84.9149 173.042 90.5264C169.641 96.1379 165.56 100.984 160.799 105.065L140.649 85.17C145.41 80.9189 148.981 75.9875 151.362 70.3761C153.742 64.7646 154.933 58.5579 154.933 51.7561C154.933 46.3147 154.167 42.2336 152.637 39.5129C151.107 36.6221 148.811 35.1767 145.75 35.1767C142.349 35.1767 139.713 36.7071 137.843 39.768C135.973 42.6587 134.442 46.4847 133.252 51.246C131.891 56.0073 130.446 61.0236 128.916 66.295C127.215 71.3963 125.09 76.3276 122.539 81.0889C119.818 85.8502 116.162 89.7612 111.571 92.822C106.81 95.7128 100.688 97.1582 93.2062 97.1582C85.3841 97.1582 78.5823 95.2877 72.8008 91.5467C67.0192 87.6356 62.513 82.1092 59.2822 74.9673C56.0513 67.8254 54.4359 59.4082 54.4359 49.7156C54.4359 39.5129 56.2214 30.3305 59.7923 22.1683C63.3633 13.8361 68.7197 6.94925 75.8616 1.50781L96.0119 21.6582C91.4207 25.3991 88.1048 29.6503 86.0643 34.4115C84.0237 39.0028 83.0035 44.0191 83.0035 49.4605C83.0035 54.3918 83.7687 58.2178 85.2991 60.9386C86.8295 63.4892 88.9551 64.7646 91.6758 64.7646C94.7366 64.7646 97.1172 63.3192 98.8177 60.4284C100.518 57.3676 102.049 53.4566 103.409 48.6953C104.599 43.9341 106.045 39.0027 107.745 33.9014C109.275 28.63 111.486 23.6987 114.377 19.1075C117.268 14.3462 121.094 10.5202 125.855 7.62943C130.616 4.56862 136.738 3.03821 144.22 3.03821C156.293 3.03821 165.9 7.37437 173.042 16.0467C180.014 24.719 183.5 36.5371 183.5 51.5011Z"/>
</mask>
<path d="M180.694 1553.92H1.38184L1.38184 1529.43L117.693 1456.74V1470.77L1.38184 1398.33L1.38184 1373.84H180.694V1408.28H60.8126L62.8531 1401.65L143.965 1452.15V1475.62L62.8531 1526.12L60.8126 1519.23H180.694V1553.92ZM183.245 1282.88C183.245 1295.3 180.439 1306.52 174.828 1316.55C169.046 1326.42 161.309 1334.32 151.617 1340.27C141.754 1346.06 130.786 1348.95 118.713 1348.95C106.64 1348.95 95.8419 1346.06 86.3193 1340.27C76.6268 1334.49 68.9747 1326.59 63.3633 1316.55C57.5817 1306.52 54.691 1295.38 54.691 1283.14C54.691 1270.56 57.5817 1259.33 63.3633 1249.47C68.9747 1239.44 76.6268 1231.53 86.3193 1225.75C95.8419 1219.97 106.64 1217.08 118.713 1217.08C130.786 1217.08 141.754 1219.97 151.617 1225.75C161.309 1231.53 169.046 1239.44 174.828 1249.47C180.439 1259.33 183.245 1270.47 183.245 1282.88ZM152.127 1283.14C152.127 1276.85 150.766 1271.32 148.046 1266.56C145.155 1261.63 141.244 1257.89 136.313 1255.34C131.211 1252.62 125.43 1251.26 118.968 1251.26C112.506 1251.26 106.81 1252.62 101.878 1255.34C96.9472 1258.06 93.1211 1261.8 90.4004 1266.56C87.5097 1271.32 86.0643 1276.85 86.0643 1283.14C86.0643 1289.26 87.5097 1294.7 90.4004 1299.46C93.1211 1304.22 96.9472 1307.97 101.878 1310.69C106.81 1313.41 112.506 1314.77 118.968 1314.77C125.43 1314.77 131.211 1313.41 136.313 1310.69C141.244 1307.97 145.155 1304.22 148.046 1299.46C150.766 1294.7 152.127 1289.26 152.127 1283.14ZM180.694 1112.67H110.041C102.729 1112.67 96.7771 1114.96 92.1859 1119.55C87.5947 1124.15 85.2991 1130.1 85.2991 1137.41C85.2991 1142.17 86.3193 1146.42 88.3599 1150.16C90.4004 1153.9 93.2912 1156.88 97.0322 1159.09C100.773 1161.13 105.109 1162.15 110.041 1162.15L103.409 1175.16C93.7163 1175.16 85.2991 1173.12 78.1572 1169.04C70.8452 1164.79 65.1487 1159.01 61.0677 1151.69C56.9866 1144.21 54.946 1135.79 54.946 1126.44C54.946 1117.43 57.2416 1109.35 61.8329 1102.21C66.254 1095.07 72.1206 1089.46 79.4325 1085.38C86.5744 1081.29 94.3115 1079.25 102.644 1079.25H180.694V1112.67ZM180.694 1195.56H57.4967V1162.15H180.694V1195.56ZM183.245 934.162C183.245 943.005 181.46 950.997 177.889 958.139C174.148 965.281 169.131 970.977 162.84 975.228C156.548 979.479 149.321 981.775 141.159 982.115H97.5423C89.3802 981.775 82.1532 979.479 75.8616 975.228C69.3999 970.807 64.2985 965.111 60.5575 958.139C56.8165 950.997 54.946 943.005 54.946 934.162C54.946 922.769 57.7518 912.567 63.3633 903.554C68.9748 894.542 76.6268 887.485 86.3194 882.384C96.0119 877.112 106.98 874.477 119.223 874.477C131.296 874.477 142.179 877.112 151.872 882.384C161.564 887.485 169.216 894.542 174.828 903.554C180.439 912.567 183.245 922.769 183.245 934.162ZM152.382 940.029C152.382 933.907 151.021 928.466 148.301 923.705C145.41 918.943 141.499 915.287 136.568 912.737C131.466 910.016 125.6 908.656 118.968 908.656C112.506 908.656 106.81 910.016 101.878 912.737C96.7771 915.287 92.8661 918.943 90.1454 923.705C87.2546 928.466 85.8092 933.907 85.8092 940.029C85.8092 945.981 87.2546 951.337 90.1454 956.098C92.8661 960.86 96.7771 964.601 101.878 967.321C106.81 969.872 112.506 971.147 118.968 971.147C125.6 971.147 131.466 969.872 136.568 967.321C141.499 964.601 145.41 960.945 148.301 956.353C151.021 951.592 152.382 946.151 152.382 940.029ZM232.218 1002.52H57.4967V969.107H89.8903L119.733 974.718L149.576 969.362H232.218V1002.52ZM183.245 801.045C183.245 812.268 180.439 822.386 174.828 831.398C169.216 840.411 161.564 847.467 151.872 852.569C142.179 857.67 131.296 860.221 119.223 860.221C106.98 860.221 96.0119 857.67 86.3194 852.569C76.6268 847.467 68.9748 840.411 63.3633 831.398C57.7518 822.386 54.946 812.268 54.946 801.045C54.946 792.203 56.7315 784.296 60.3025 777.324C63.8734 770.352 68.8897 764.825 75.3514 760.744C81.6431 756.493 88.785 754.198 96.7771 753.858H141.159C149.321 754.198 156.548 756.493 162.84 760.744C169.131 764.825 174.148 770.352 177.889 777.324C181.46 784.296 183.245 792.203 183.245 801.045ZM152.382 794.923C152.382 785.571 149.321 778.004 143.199 772.222C136.908 766.441 128.831 763.55 118.968 763.55C112.506 763.55 106.81 764.911 101.878 767.631C96.7771 770.182 92.8661 773.838 90.1454 778.599C87.2546 783.19 85.8092 788.632 85.8092 794.923C85.8092 801.045 87.2546 806.486 90.1454 811.248C92.8661 815.839 96.7771 819.495 101.878 822.216C106.81 824.766 112.506 826.042 118.968 826.042C125.6 826.042 131.466 824.766 136.568 822.216C141.499 819.495 145.41 815.839 148.301 811.248C151.021 806.486 152.382 801.045 152.382 794.923ZM180.694 765.336H147.536L117.438 759.979L87.8498 765.336H57.4967V732.177H180.694V765.336ZM180.694 702.617H57.4967V669.203H180.694V702.617ZM112.591 669.203L103.919 682.211C88.785 680.681 76.8818 676.26 68.2095 668.948C59.3672 661.636 54.946 651.093 54.946 637.32C54.946 631.368 55.9663 626.012 58.0068 621.25C59.8773 616.489 63.0232 612.153 67.4443 608.242L91.4207 629.157C89.3802 631.028 87.8498 633.324 86.8295 636.044C85.8092 638.595 85.2991 641.571 85.2991 644.972C85.2991 652.114 87.5947 657.98 92.1859 662.571C96.6071 666.992 103.409 669.203 112.591 669.203ZM183.245 541.837C183.245 554.42 180.439 565.728 174.828 575.761C169.216 585.793 161.564 593.7 151.872 599.482C142.179 605.263 131.296 608.154 119.223 608.154C106.98 608.154 96.0119 605.263 86.3194 599.482C76.6268 593.7 68.9748 585.793 63.3633 575.761C57.5817 565.558 54.691 554.25 54.691 541.837C54.691 532.144 56.4764 523.217 60.0474 515.055C63.6183 506.892 68.7197 499.835 75.3514 493.884L97.0322 515.31C93.4612 518.54 90.7405 522.451 88.87 527.043C86.9995 531.464 86.0643 536.395 86.0643 541.837C86.0643 547.958 87.5097 553.485 90.4004 558.416C93.1212 563.177 96.9472 567.003 101.878 569.894C106.64 572.615 112.336 573.975 118.968 573.975C125.43 573.975 131.211 572.615 136.313 569.894C141.244 567.003 145.155 563.177 148.046 558.416C150.766 553.485 152.127 547.958 152.127 541.837C152.127 536.225 151.192 531.209 149.321 526.788C147.281 522.196 144.39 518.285 140.649 515.055L162.329 493.374C169.131 499.665 174.318 506.892 177.889 515.055C181.46 523.217 183.245 532.144 183.245 541.837ZM183.245 419.291C183.245 431.704 180.439 442.927 174.828 452.96C169.046 462.822 161.309 470.729 151.617 476.681C141.754 482.462 130.786 485.353 118.713 485.353C106.64 485.353 95.8419 482.462 86.3194 476.681C76.6268 470.899 68.9748 462.992 63.3633 452.96C57.5817 442.927 54.691 431.789 54.691 419.546C54.691 406.962 57.5817 395.739 63.3633 385.877C68.9748 375.844 76.6268 367.937 86.3194 362.155C95.8419 356.374 106.64 353.483 118.713 353.483C130.786 353.483 141.754 356.374 151.617 362.155C161.309 367.937 169.046 375.844 174.828 385.877C180.439 395.739 183.245 406.877 183.245 419.291ZM152.127 419.546C152.127 413.254 150.766 407.728 148.046 402.966C145.155 398.035 141.244 394.294 136.313 391.743C131.211 389.023 125.43 387.662 118.968 387.662C112.506 387.662 106.81 389.023 101.878 391.743C96.9472 394.464 93.1212 398.205 90.4004 402.966C87.5097 407.728 86.0643 413.254 86.0643 419.546C86.0643 425.667 87.5097 431.109 90.4004 435.87C93.1212 440.631 96.9472 444.372 101.878 447.093C106.81 449.814 112.506 451.174 118.968 451.174C125.43 451.174 131.211 449.814 136.313 447.093C141.244 444.372 145.155 440.631 148.046 435.87C150.766 431.109 152.127 425.667 152.127 419.546ZM183.245 279.428C183.245 290.311 180.949 300.003 176.358 308.506C171.767 316.838 165.39 323.385 157.228 328.146C149.066 332.907 139.628 335.288 128.916 335.288H57.4967V301.619H128.15C133.252 301.619 137.673 300.769 141.414 299.068C144.985 297.368 147.706 294.817 149.576 291.416C151.447 288.015 152.382 284.019 152.382 279.428C152.382 272.456 150.256 267.015 146.005 263.104C141.754 259.193 135.802 257.237 128.15 257.237H57.4967V223.823H128.916C139.799 223.823 149.321 226.204 157.483 230.965C165.645 235.556 172.022 242.103 176.613 250.605C181.034 258.937 183.245 268.545 183.245 279.428ZM180.694 197.214H57.4967V163.8H180.694V197.214ZM112.591 163.8L103.919 176.809C88.785 175.279 76.8819 170.857 68.2096 163.545C59.3672 156.233 54.946 145.691 54.946 131.917C54.946 125.965 55.9663 120.609 58.0068 115.848C59.8773 111.087 63.0232 106.75 67.4444 102.839L91.4207 123.755C89.3802 125.625 87.8498 127.921 86.8295 130.642C85.8092 133.192 85.2991 136.168 85.2991 139.569C85.2991 146.711 87.5947 152.578 92.1859 157.169C96.6071 161.59 103.409 163.8 112.591 163.8ZM183.5 51.5011C183.5 58.4729 182.565 65.3597 180.694 72.1615C178.824 78.7933 176.273 84.9149 173.042 90.5264C169.641 96.1379 165.56 100.984 160.799 105.065L140.649 85.17C145.41 80.9189 148.981 75.9875 151.362 70.3761C153.742 64.7646 154.933 58.5579 154.933 51.7561C154.933 46.3147 154.167 42.2336 152.637 39.5129C151.107 36.6221 148.811 35.1767 145.75 35.1767C142.349 35.1767 139.713 36.7071 137.843 39.768C135.973 42.6587 134.442 46.4847 133.252 51.246C131.891 56.0073 130.446 61.0236 128.916 66.295C127.215 71.3963 125.09 76.3276 122.539 81.0889C119.818 85.8502 116.162 89.7612 111.571 92.822C106.81 95.7128 100.688 97.1582 93.2062 97.1582C85.3841 97.1582 78.5823 95.2877 72.8008 91.5467C67.0192 87.6356 62.513 82.1092 59.2822 74.9673C56.0513 67.8254 54.4359 59.4082 54.4359 49.7156C54.4359 39.5129 56.2214 30.3305 59.7923 22.1683C63.3633 13.8361 68.7197 6.94925 75.8616 1.50781L96.0119 21.6582C91.4207 25.3991 88.1048 29.6503 86.0643 34.4115C84.0237 39.0028 83.0035 44.0191 83.0035 49.4605C83.0035 54.3918 83.7687 58.2178 85.2991 60.9386C86.8295 63.4892 88.9551 64.7646 91.6758 64.7646C94.7366 64.7646 97.1172 63.3192 98.8177 60.4284C100.518 57.3676 102.049 53.4566 103.409 48.6953C104.599 43.9341 106.045 39.0027 107.745 33.9014C109.275 28.63 111.486 23.6987 114.377 19.1075C117.268 14.3462 121.094 10.5202 125.855 7.62943C130.616 4.56862 136.738 3.03821 144.22 3.03821C156.293 3.03821 165.9 7.37437 173.042 16.0467C180.014 24.719 183.5 36.5371 183.5 51.5011Z" stroke="#F06449" stroke-width="2" mask="url(#path-1-outside-1_1531_1487)"/>
</svg>
