<svg width="18" height="13" viewBox="0 0 18 13" fill="none" xmlns="http://www.w3.org/2000/svg">
<path d="M1 5.58501C0.558172 5.58501 0.2 5.94318 0.2 6.38501C0.2 6.82684 0.558172 7.18501 1 7.18501L1 5.58501ZM17.5657 6.95069C17.8781 6.63827 17.8781 6.13174 17.5657 5.81932L12.4745 0.728154C12.1621 0.415735 11.6556 0.415735 11.3431 0.728155C11.0307 1.04057 11.0307 1.54711 11.3431 1.85953L15.8686 6.38501L11.3431 10.9105C11.0307 11.2229 11.0307 11.7294 11.3431 12.0419C11.6556 12.3543 12.1621 12.3543 12.4745 12.0419L17.5657 6.95069ZM1 7.18501L17 7.18501L17 5.58501L1 5.58501L1 7.18501Z" fill="#F06449"/>
</svg>
