<svg width="202" height="46" viewBox="0 0 202 46" fill="none" xmlns="http://www.w3.org/2000/svg">
<path d="M27.7841 5.41821H18.773L27.7841 21.026H36.7952L27.7841 5.41821Z" fill="#F06449"/>
<path d="M27.7841 39.6375H18.773L27.7841 24.0297H36.7952L27.7841 39.6375Z" fill="#F06449"/>
<path d="M15.0183 9.32019H8.26001L15.0184 21.026H21.7767L15.0183 9.32019Z" fill="#F06449"/>
<path d="M15.0183 35.7355H8.26001L15.0184 24.0297H21.7767L15.0183 35.7355Z" fill="#F06449"/>
<path d="M60.6898 32.2596C59.194 32.2596 57.9234 31.9893 56.8781 31.4486C55.8328 30.908 54.8957 30.115 54.0667 29.0697L56.1752 26.9611C56.6979 27.718 57.3197 28.3128 58.0405 28.7453C58.7614 29.1598 59.6806 29.3671 60.7979 29.3671C61.8432 29.3671 62.6723 29.1508 63.285 28.7183C63.9158 28.2857 64.2312 27.691 64.2312 26.9341C64.2312 26.3033 64.069 25.7897 63.7446 25.3932C63.4202 24.9967 62.9876 24.6723 62.447 24.42C61.9243 24.1496 61.3386 23.9154 60.6898 23.7171C60.059 23.5008 59.4192 23.2666 58.7704 23.0142C58.1397 22.7439 57.5539 22.4105 57.0133 22.014C56.4906 21.6175 56.0671 21.1039 55.7427 20.4731C55.4183 19.8423 55.2561 19.0403 55.2561 18.0672C55.2561 16.9498 55.5264 16.0036 56.0671 15.2287C56.6258 14.4357 57.3737 13.8319 58.3109 13.4174C59.248 13.0029 60.2933 12.7957 61.4467 12.7957C62.6903 12.7957 63.7986 13.039 64.7718 13.5256C65.7631 14.0122 66.5651 14.6339 67.1778 15.3909L65.0692 17.4995C64.5285 16.8867 63.9608 16.4361 63.3661 16.1478C62.7894 15.8414 62.1226 15.6882 61.3656 15.6882C60.4285 15.6882 59.6896 15.8775 59.1489 16.2559C58.6263 16.6344 58.3649 17.166 58.3649 17.8509C58.3649 18.4276 58.5271 18.8962 58.8515 19.2566C59.1759 19.599 59.5995 19.8964 60.1221 20.1487C60.6628 20.383 61.2485 20.6083 61.8793 20.8245C62.5281 21.0408 63.1679 21.2841 63.7986 21.5544C64.4474 21.8248 65.0332 22.1762 65.5558 22.6087C66.0965 23.0233 66.529 23.5639 66.8534 24.2307C67.1778 24.8976 67.34 25.7356 67.34 26.7448C67.34 28.4389 66.7363 29.7816 65.5288 30.7728C64.3393 31.764 62.7263 32.2596 60.6898 32.2596Z" fill="white"/>
<path d="M70.0613 31.9893V19.0133H73.035V31.9893H70.0613ZM71.5481 16.6344C71.0435 16.6344 70.62 16.4632 70.2776 16.1208C69.9532 15.7783 69.791 15.3548 69.791 14.8502C69.791 14.3456 69.9532 13.922 70.2776 13.5796C70.62 13.2372 71.0435 13.066 71.5481 13.066C72.0708 13.066 72.4943 13.2372 72.8187 13.5796C73.1431 13.922 73.3053 14.3456 73.3053 14.8502C73.3053 15.3548 73.1431 15.7783 72.8187 16.1208C72.4943 16.4632 72.0708 16.6344 71.5481 16.6344Z" fill="white"/>
<path d="M76.3702 31.9893V19.0133H79.3439V31.9893H76.3702ZM84.9938 31.9893V24.2578C84.9938 23.3927 84.7235 22.7259 84.1828 22.2573C83.6421 21.7707 82.9753 21.5274 82.1824 21.5274C81.6417 21.5274 81.1551 21.6355 80.7226 21.8518C80.308 22.0681 79.9746 22.3835 79.7223 22.798C79.47 23.1945 79.3439 23.6811 79.3439 24.2578L78.1814 23.609C78.1814 22.6178 78.3977 21.7617 78.8302 21.0408C79.2628 20.3199 79.8485 19.7612 80.5874 19.3647C81.3263 18.9502 82.1553 18.743 83.0744 18.743C83.9936 18.743 84.8226 18.9412 85.5615 19.3377C86.3004 19.7342 86.8861 20.2929 87.3187 21.0138C87.7512 21.7347 87.9675 22.5997 87.9675 23.609V31.9893H84.9938ZM93.6174 31.9893V24.2578C93.6174 23.3927 93.3471 22.7259 92.8064 22.2573C92.2658 21.7707 91.599 21.5274 90.806 21.5274C90.2833 21.5274 89.8057 21.6355 89.3732 21.8518C88.9407 22.0681 88.5983 22.3835 88.3459 22.798C88.0936 23.1945 87.9675 23.6811 87.9675 24.2578L86.2914 23.609C86.3815 22.6178 86.6699 21.7617 87.1565 21.0408C87.6431 20.3199 88.2648 19.7612 89.0218 19.3647C89.7967 18.9502 90.6438 18.743 91.5629 18.743C92.5001 18.743 93.3471 18.9412 94.104 19.3377C94.861 19.7342 95.4647 20.2929 95.9153 21.0138C96.3658 21.7347 96.5911 22.5997 96.5911 23.609V31.9893H93.6174Z" fill="white"/>
<path d="M105.602 32.2596C104.341 32.2596 103.196 31.9623 102.169 31.3675C101.142 30.7548 100.322 29.9348 99.7088 28.9075C99.1141 27.8802 98.8167 26.7358 98.8167 25.4743C98.8167 24.2127 99.1141 23.0773 99.7088 22.0681C100.322 21.0588 101.142 20.2568 102.169 19.6621C103.196 19.0494 104.341 18.743 105.602 18.743C106.882 18.743 108.035 19.0403 109.062 19.6351C110.09 20.2298 110.901 21.0408 111.495 22.0681C112.108 23.0773 112.414 24.2127 112.414 25.4743C112.414 26.7358 112.108 27.8802 111.495 28.9075C110.901 29.9348 110.09 30.7548 109.062 31.3675C108.035 31.9623 106.882 32.2596 105.602 32.2596ZM105.602 29.3941C106.341 29.3941 106.99 29.2319 107.548 28.9075C108.125 28.5651 108.567 28.0965 108.873 27.5018C109.197 26.907 109.36 26.2312 109.36 25.4743C109.36 24.7173 109.197 24.0505 108.873 23.4738C108.549 22.8971 108.107 22.4465 107.548 22.1221C106.99 21.7797 106.341 21.6085 105.602 21.6085C104.881 21.6085 104.232 21.7797 103.656 22.1221C103.097 22.4465 102.655 22.8971 102.331 23.4738C102.025 24.0505 101.871 24.7173 101.871 25.4743C101.871 26.2312 102.025 26.907 102.331 27.5018C102.655 28.0965 103.097 28.5651 103.656 28.9075C104.232 29.2319 104.881 29.3941 105.602 29.3941Z" fill="white"/>
<path d="M123.781 31.9893V24.5011C123.781 23.636 123.502 22.9241 122.943 22.3654C122.403 21.8068 121.7 21.5274 120.835 21.5274C120.258 21.5274 119.744 21.6536 119.294 21.9059C118.843 22.1582 118.492 22.5096 118.24 22.9602C117.987 23.4107 117.861 23.9244 117.861 24.5011L116.699 23.8523C116.699 22.8611 116.915 21.987 117.347 21.23C117.78 20.4551 118.375 19.8513 119.132 19.4188C119.907 18.9683 120.772 18.743 121.727 18.743C122.7 18.743 123.565 18.9953 124.322 19.4999C125.079 19.9865 125.674 20.6263 126.106 21.4193C126.539 22.1942 126.755 23.0052 126.755 23.8523V31.9893H123.781ZM114.887 31.9893V19.0133H117.861V31.9893H114.887Z" fill="white"/>
<path d="M139.93 31.9893V13.6067H143.039V31.9893H139.93ZM133.766 15.9045V13.066H149.202V15.9045H133.766Z" fill="white"/>
<path d="M153.585 32.2596C152.413 32.2596 151.35 31.9623 150.395 31.3675C149.458 30.7728 148.71 29.9708 148.151 28.9616C147.61 27.9343 147.34 26.7899 147.34 25.5283C147.34 24.2488 147.61 23.1044 148.151 22.0951C148.71 21.0678 149.458 20.2568 150.395 19.6621C151.35 19.0494 152.413 18.743 153.585 18.743C154.576 18.743 155.45 18.9592 156.207 19.3918C156.982 19.8063 157.595 20.383 158.045 21.1219C158.496 21.8608 158.721 22.6989 158.721 23.636V27.3666C158.721 28.3038 158.496 29.1418 158.045 29.8807C157.613 30.6196 157.009 31.2053 156.234 31.6379C155.459 32.0524 154.576 32.2596 153.585 32.2596ZM154.071 29.4482C155.171 29.4482 156.054 29.0787 156.721 28.3398C157.405 27.6009 157.748 26.6547 157.748 25.5013C157.748 24.7264 157.595 24.0415 157.288 23.4468C156.982 22.852 156.549 22.3925 155.991 22.0681C155.45 21.7257 154.81 21.5544 154.071 21.5544C153.35 21.5544 152.711 21.7257 152.152 22.0681C151.611 22.3925 151.179 22.852 150.854 23.4468C150.548 24.0415 150.395 24.7264 150.395 25.5013C150.395 26.2763 150.548 26.9611 150.854 27.5558C151.179 28.1506 151.611 28.6192 152.152 28.9616C152.711 29.286 153.35 29.4482 154.071 29.4482ZM157.559 31.9893V28.502L158.072 25.3391L157.559 22.2032V19.0133H160.532V31.9893H157.559Z" fill="white"/>
<path d="M163.832 31.9893V19.0133H166.806V31.9893H163.832ZM166.806 24.7714L165.779 24.2578C165.779 22.6178 166.139 21.2931 166.86 20.2839C167.599 19.2566 168.707 18.743 170.185 18.743C170.834 18.743 171.42 18.8601 171.942 19.0944C172.465 19.3287 172.952 19.7072 173.402 20.2298L171.456 22.2303C171.222 21.978 170.96 21.7977 170.672 21.6896C170.384 21.5815 170.05 21.5274 169.672 21.5274C168.843 21.5274 168.158 21.7887 167.617 22.3114C167.076 22.834 166.806 23.654 166.806 24.7714Z" fill="white"/>
<path d="M180.474 32.2596C179.176 32.2596 178.005 31.9713 176.959 31.3946C175.932 30.7998 175.112 29.9888 174.499 28.9616C173.904 27.9343 173.607 26.7809 173.607 25.5013C173.607 24.2217 173.904 23.0773 174.499 22.0681C175.094 21.0408 175.896 20.2298 176.905 19.6351C177.932 19.0403 179.068 18.743 180.311 18.743C181.519 18.743 182.582 19.0223 183.501 19.581C184.438 20.1397 185.168 20.9056 185.691 21.8788C186.232 22.852 186.502 23.9604 186.502 25.2039C186.502 25.4202 186.484 25.6455 186.448 25.8798C186.43 26.096 186.394 26.3393 186.34 26.6097H175.689V24.1767H184.799L183.691 25.1499C183.654 24.3569 183.501 23.6901 183.231 23.1494C182.961 22.6087 182.573 22.1942 182.069 21.9059C181.582 21.6175 180.978 21.4733 180.257 21.4733C179.5 21.4733 178.843 21.6355 178.284 21.9599C177.725 22.2843 177.293 22.7439 176.986 23.3386C176.68 23.9154 176.527 24.6092 176.527 25.4202C176.527 26.2312 176.689 26.9431 177.013 27.5558C177.338 28.1686 177.797 28.6462 178.392 28.9886C178.987 29.313 179.672 29.4752 180.447 29.4752C181.113 29.4752 181.726 29.3581 182.285 29.1238C182.862 28.8895 183.348 28.5471 183.745 28.0965L185.637 30.0159C185.006 30.7548 184.24 31.3135 183.339 31.6919C182.438 32.0704 181.483 32.2596 180.474 32.2596Z" fill="white"/>
<path d="M194.319 32.2596C193.148 32.2596 192.085 31.9623 191.13 31.3675C190.192 30.7728 189.444 29.9708 188.886 28.9616C188.345 27.9343 188.075 26.7899 188.075 25.5283C188.075 24.2488 188.345 23.1044 188.886 22.0951C189.444 21.0678 190.192 20.2568 191.13 19.6621C192.085 19.0494 193.148 18.743 194.319 18.743C195.311 18.743 196.185 18.9592 196.942 19.3918C197.717 19.8063 198.329 20.383 198.78 21.1219C199.231 21.8608 199.456 22.6989 199.456 23.636V27.3666C199.456 28.3038 199.231 29.1418 198.78 29.8807C198.347 30.6196 197.744 31.2053 196.969 31.6379C196.194 32.0524 195.311 32.2596 194.319 32.2596ZM194.806 29.4482C195.905 29.4482 196.789 29.0787 197.455 28.3398C198.14 27.6009 198.483 26.6547 198.483 25.5013C198.483 24.7264 198.329 24.0415 198.023 23.4468C197.717 22.852 197.284 22.3925 196.725 22.0681C196.185 21.7257 195.545 21.5544 194.806 21.5544C194.085 21.5544 193.445 21.7257 192.887 22.0681C192.346 22.3925 191.914 22.852 191.589 23.4468C191.283 24.0415 191.13 24.7264 191.13 25.5013C191.13 26.2763 191.283 26.9611 191.589 27.5558C191.914 28.1506 192.346 28.6192 192.887 28.9616C193.445 29.286 194.085 29.4482 194.806 29.4482ZM198.293 31.9893V28.502L198.807 25.3391L198.293 22.2032V19.0133H201.267V31.9893H198.293Z" fill="white"/>
</svg>
