<svg width="150" height="31" viewBox="0 0 150 31" fill="none" xmlns="http://www.w3.org/2000/svg">
<path d="M3.24205 12.5302C4.21466 5.65486 5.3899 4.55643 11.5903 4.55643H16.575L0 28.1522V30.5932H25.7337V19.5276H23.059C22.0459 26.9318 20.9112 28.1522 14.7108 28.1522H8.79405L25.369 4.55643V2.11549H0.607884V12.5302H3.24205Z" fill="white"/>
<path d="M51.5112 20.1785C51.5112 13.3032 46.486 9.31628 40.1235 9.31628C33.761 9.31628 28.7763 13.3032 28.7763 20.1785C28.7763 27.0131 33.761 31 40.1235 31C46.486 31 51.5112 27.0131 51.5112 20.1785ZM36.2736 20.0564C36.2736 14.2795 37.5298 11.5945 40.1235 11.5945C42.7576 11.5945 44.0139 14.2795 44.0139 20.0564C44.0139 25.9554 42.7576 28.7218 40.1235 28.7218C37.5298 28.7218 36.2736 25.9554 36.2736 20.0564Z" fill="white"/>
<path d="M70.4375 27.2572V30.5932H79.5963V28.315H77.8132C77.1243 28.315 76.6785 27.8675 76.6785 26.9318V1.30184H66.5876V3.58005H68.3707C69.0597 3.58005 69.546 4.02756 69.546 4.96325V12.2047C68.0871 10.3333 65.9797 9.31628 63.6293 9.31628C58.3204 9.31628 54.1057 13.3032 54.1057 20.4226C54.1057 27.0131 58.3204 31 63.4266 31C66.3039 31 68.7355 29.7388 70.2349 27.2572H70.4375ZM69.6676 20.4226C69.6676 25.6299 68.3707 28.0302 65.6555 28.0302C62.9403 28.0302 61.603 25.6299 61.603 20.3819C61.603 14.9711 62.9403 12.4488 65.6555 12.4488C68.3707 12.4488 69.6676 15.0118 69.6676 20.4226Z" fill="white"/>
<path d="M87.4842 7.44488C89.8753 7.44488 91.4963 5.98032 91.4963 3.74278C91.4963 1.46457 89.8753 0 87.4842 0C85.1338 0 83.5533 1.46457 83.5533 3.74278C83.5533 5.98032 85.1338 7.44488 87.4842 7.44488ZM91.3342 9.7231H81.2028V12.0013H83.0264C83.7154 12.0013 84.2017 12.4488 84.2017 13.3845V26.9318C84.2017 27.8675 83.7154 28.315 83.0264 28.315H81.2028V30.5932H94.3331V28.315H92.4689C91.8205 28.315 91.3342 27.8675 91.3342 26.9318V9.7231Z" fill="white"/>
<path d="M120.687 26.0368V24.4908H118.661V25.6706C118.661 25.874 118.661 26.1181 118.62 26.3215C118.58 27.4606 118.174 27.9488 117.567 27.9895C117.526 28.0302 117.486 28.0302 117.445 28.0302C116.675 28.0302 116.31 27.542 116.31 26.1995V17.4528C116.31 17.168 116.27 16.8832 116.27 16.5984C115.986 11.3911 112.663 9.31628 106.746 9.31628C100.424 9.31628 97.3443 11.9606 97.1012 14.5643C97.0606 14.727 97.0606 14.8491 97.0606 14.9711C97.0606 16.3137 97.709 17.2493 98.6816 17.6969C99.1274 17.9409 99.6948 18.063 100.303 18.063C101.964 18.063 103.464 17.2087 103.464 15.2966C103.464 14.3202 103.018 13.5472 102.248 13.1811C101.964 13.0184 101.599 12.8963 101.194 12.8556C101.883 12.4081 102.856 11.9606 104.274 11.8793H104.517C107.881 11.8793 109.097 13.7507 109.137 15.6627V15.8661C109.137 17.4934 108.691 17.9409 102.086 20.0971C101.599 20.2598 101.113 20.4226 100.586 20.5853C97.3443 21.6837 96.2096 23.4331 96.2096 25.9961C96.2096 28.7625 98.2359 30.8373 101.843 30.9593C102.653 31 103.423 30.9186 104.112 30.7966C106.422 30.4304 108.205 29.332 109.502 27.8268H109.705C110.353 29.5354 111.893 30.7152 114.689 30.8373C115.621 30.9593 116.472 30.9186 117.242 30.7559C119.552 30.227 120.687 28.6404 120.687 26.0368ZM105.895 27.5013C104.315 27.5013 103.261 26.5249 103.261 24.6535C103.261 21.8871 105.814 21.2769 109.137 19.7717V23.5144C109.137 23.9213 109.097 24.3688 109.056 24.7756C108.813 26.5249 107.395 27.5013 105.895 27.5013Z" fill="white"/>
<path d="M134.56 28.315H133.344C132.655 28.315 132.169 27.8675 132.169 26.9318V22.1312L134.925 19.8937L138.45 26.6877C138.977 27.7454 138.815 28.315 137.842 28.315H137.113V30.5932H150V28.315H149.108C147.771 28.315 147.042 27.8268 146.353 26.6877L140.355 15.8255L141.692 14.6457C144.286 12.6522 145.907 12.0013 147.528 12.0013H148.46V9.7231H137.113V12.0013H138.531C139.666 12.0013 139.95 12.8556 138.896 13.71L132.169 19.1207V1.30184H122.037V3.58005H123.902C124.59 3.58005 125.036 4.02756 125.036 4.96325V26.9318C125.036 27.8675 124.59 28.315 123.902 28.315H122.037V30.5932H134.56V28.315Z" fill="white"/>
</svg>
