<svg width="182" height="12" viewBox="0 0 182 12" fill="none" xmlns="http://www.w3.org/2000/svg">
<path d="M178.55 9.30679C165.674 8.38626 152.828 6.97509 139.94 6.55377C124.637 6.05312 109.312 6.20501 93.9992 6.43447C82.0782 6.61573 70.1519 7.15822 58.248 7.86353C44.0047 8.70926 29.7858 9.95638 15.5437 10.9176C11.7734 11.1744 7.96233 11.1751 4.19505 10.9707C0.729075 10.7838 -0.886037 7.92043 0.953966 5.56635C1.3928 4.99967 2.35183 4.5172 3.07697 4.49798C12.357 4.30876 21.6448 4.39689 30.9104 4.0453C40.8858 3.66589 50.84 2.83142 60.809 2.2901C71.0651 1.73478 81.3157 1.00222 91.579 0.870373C107.264 0.670324 122.969 0.555973 138.643 1.10137C151.426 1.54734 164.174 3.01428 176.931 4.04332C179.814 4.27307 182 5.5 182 7.5C182 9.5 179.604 9.38119 178.55 9.30679Z" fill="#F06449"/>
</svg>
